PathFileType	4	(X/Y/Z)	C:\Users\Biomechanik\SynologyDrive\AlexP\Athlete_03\Athlete_3_25_03_31\Static_01\marker_experimental.trc
DataRate	CameraRate	NumFrames	NumMarkers	Units	OrigDataRate	OrigDataStartFrame	OrigNumFrames
200	200	4	80	mm	200	325	37
Frame#	Time	BL			BR			GLAB			RFHD			LFHD			C7			T6			SPINMOL			SPINM2			SPINM3			T12			BELTOL			BELT2			BELT3			SACROL			SACR2			SACR3			LASI			RASI			LPSI			RPSI			LTHOL			LTH2			LTH3			LKNEL			LKNEM			LFIB			LSHAOL			LSHA2			LSHA3			LMALL			LMALM			LHEE			LTOE			LM5			RTHOL			RTH2			RTH3			RKNEL			RKNEM			RFIB			RSHAOL			RSHA2			RSHA3			RMALL			RMALM			RHEE			RTOE			RM5			STRN			XIPH			LACR			LUAOL			LUA2			LUA3			LCUBL			LCUBM			LLAOL			LLA2			LLA3			LWRR			LWRU			RACR			RUAOL			RUA2			RUA3			RCUBL			RCUBM			RLAOL			RLA2			RLA3			RWRR			RWRU			*73			LKJCWK			RKJCWK			RAJCWK			LAJCWK			RHJCWK			LHJCWK
		X1	Y1	Z1	X2	Y2	Z2	X3	Y3	Z3	X4	Y4	Z4	X5	Y5	Z5	X6	Y6	Z6	X7	Y7	Z7	X8	Y8	Z8	X9	Y9	Z9	X10	Y10	Z10	X11	Y11	Z11	X12	Y12	Z12	X13	Y13	Z13	X14	Y14	Z14	X15	Y15	Z15	X16	Y16	Z16	X17	Y17	Z17	X18	Y18	Z18	X19	Y19	Z19	X20	Y20	Z20	X21	Y21	Z21	X22	Y22	Z22	X23	Y23	Z23	X24	Y24	Z24	X25	Y25	Z25	X26	Y26	Z26	X27	Y27	Z27	X28	Y28	Z28	X29	Y29	Z29	X30	Y30	Z30	X31	Y31	Z31	X32	Y32	Z32	X33	Y33	Z33	X34	Y34	Z34	X35	Y35	Z35	X36	Y36	Z36	X37	Y37	Z37	X38	Y38	Z38	X39	Y39	Z39	X40	Y40	Z40	X41	Y41	Z41	X42	Y42	Z42	X43	Y43	Z43	X44	Y44	Z44	X45	Y45	Z45	X46	Y46	Z46	X47	Y47	Z47	X48	Y48	Z48	X49	Y49	Z49	X50	Y50	Z50	X51	Y51	Z51	X52	Y52	Z52	X53	Y53	Z53	X54	Y54	Z54	X55	Y55	Z55	X56	Y56	Z56	X57	Y57	Z57	X58	Y58	Z58	X59	Y59	Z59	X60	Y60	Z60	X61	Y61	Z61	X62	Y62	Z62	X63	Y63	Z63	X64	Y64	Z64	X65	Y65	Z65	X66	Y66	Z66	X67	Y67	Z67	X68	Y68	Z68	X69	Y69	Z69	X70	Y70	Z70	X71	Y71	Z71	X72	Y72	Z72	X73	Y73	Z73	X74	Y74	Z74	X75 	Y75 	Z75 	X76 	Y76 	Z76 	X77 	Y77 	Z77 	X78 	Y78 	Z78 	X79 	Y79 	Z79 	X80 	Y80 	Z80

326	1.625	960.7581	36.2349	-1933.5236	1063.1476	32.9087	86.6529	372.6973	1600.5018	-1182.0902	321.8863	1627.7316	-1120.1354	333.2248	1628.7449	-1256.0645	145.3894	1439.0333	-1203.0491	nan	nan	nan	102.7749	1230.187	-1235.6534	96.9604	1220.9821	-1186.2493	109.9872	1165.7318	-1220.8993	125.4607	1102.3071	-1217.9525	97.2268	1081.3977	-1232.3311	97.0445	1077.9684	-1182.0796	90.0725	1018.5502	-1212.2784	105.725	959.7783	-1237.0286	106.6587	957.6428	-1185.6736	87.3676	900.4821	-1213.1241	335.7122	934.5654	-1330.2612	328.6904	925.1822	-1082.5139	118.5617	977.1237	-1255.8964	119.332	968.0685	-1171.4091	193.1131	683.7948	-1399.2207	143.2412	630.8419	-1366.5645	189.3966	623.9645	-1385.5438	236.5716	487.6719	-1382.4756	254.882	461.9492	-1263.1251	193.639	426.0219	-1387.239	159.5689	329.0393	-1403.0204	110.3186	267.5509	-1390.0652	159.2201	267.2257	-1401.5304	142.7897	81.479	-1381.4343	183.6694	89.7097	-1295.6515	95.0482	67.566	-1318.255	309.8883	47.758	-1348.6611	252.9892	31.2533	-1443.6509	162.594	696.4962	-1023.7002	212.8591	637.5143	-1004.3563	169.4699	635.2243	-1029.0352	202.2301	496.0546	-1025.8574	239.8103	464.0338	-1147.5688	155.0578	432.6128	-1028.9497	120.3832	346.9447	-1018.7902	149.7199	275.6237	-1003.4327	108.3934	286.5902	-1028.854	124.9955	85.1188	-1041.8533	189.1046	95.6033	-1114.6482	90.5901	63.7919	-1115.0758	292.717	47.5875	-1043.7404	216.4365	39.4193	-964.1816	325.9749	1364.0955	-1199.2058	357.6372	1218.7142	-1201.5377	204.6229	1435.4933	-1349.3428	171.125	1410.3477	-1487.8976	160.0818	1385.5243	-1548.1697	203.6602	1413.4337	-1545.0168	184.7375	1401.1453	-1652.7073	258.1459	1311.2286	-1651.197	182.7759	1375.5826	-1743.2698	175.9526	1316.2124	-1796.088	187.5218	1364.7412	-1804.2898	200.1376	1355.5583	-1909.4574	279.531	1353.1616	-1902.3746	205.0816	1429.2423	-1059.1035	161.7974	1410.5229	-937.2647	179.118	1407.9929	-873.5752	132.9266	1387.6744	-883.9676	154.8112	1389.8727	-769.1025	212.7329	1295.3325	-769.2075	143.3529	1369.7369	-670.2343	158.425	1411.9888	-604.2347	142.4768	1364.1921	-607.9471	153.8085	1375.9073	-515.6533	232.0659	1352.5786	-503.0094	105.5082	1266.8114	-1213.5774	245.7268	474.8106	-1322.8004	221.0202	480.0442	-1086.7131	155.3221	79.8351	-1078.0221	160.9936	75.045	-1338.9696	269.1797	850.6006	-1122.1232	274.2164	857.3312	-1299.831
327	1.63	960.7558	36.2327	-1933.5381	1063.1515	32.9154	86.6444	372.7014	1600.4537	-1182.1172	321.8857	1627.7559	-1120.1764	333.2262	1628.7494	-1256.1125	145.3954	1439.0454	-1203.087	nan	nan	nan	102.779	1230.2064	-1235.697	96.9835	1221.0006	-1186.2938	110.0167	1165.7346	-1220.927	125.4545	1102.3209	-1217.98	97.1252	1081.2185	-1232.3118	97.0407	1077.983	-1182.1016	90.029	1018.5689	-1212.3226	105.719	959.7913	-1237.048	106.638	957.6612	-1185.6736	87.3723	900.4838	-1213.1106	335.7124	934.5621	-1330.2582	328.6708	925.1572	-1082.5336	118.5595	977.1423	-1255.9082	119.3283	968.0781	-1171.4158	193.1195	683.7585	-1399.2343	143.2416	630.8497	-1366.5486	189.411	623.9514	-1385.5436	236.5685	487.6898	-1382.4658	254.8676	461.9345	-1263.1394	193.6348	426.0258	-1387.2411	159.582	329.0411	-1403.032	110.4836	267.4644	-1389.9396	159.2126	267.2418	-1401.5284	142.7834	81.4784	-1381.4363	183.6727	89.7172	-1295.6599	95.0446	67.5657	-1318.256	309.9114	47.7251	-1348.6826	252.978	31.2602	-1443.6552	162.5789	696.4896	-1023.7109	212.8326	637.5182	-1004.3599	169.4595	635.2302	-1029.0466	202.2254	496.0659	-1025.8406	239.8036	464.0468	-1147.5481	155.0426	432.619	-1028.952	120.3682	346.959	-1018.7911	149.7074	275.6207	-1003.4255	108.3928	286.5845	-1028.8539	125.0061	85.1116	-1041.8483	189.1002	95.6109	-1114.6195	90.5732	63.8072	-1115.0745	292.7122	47.5986	-1043.7323	216.435	39.4081	-964.1974	325.9587	1364.1047	-1199.2388	357.6285	1218.7001	-1201.5562	204.6203	1435.4944	-1349.3879	171.1491	1410.335	-1487.9254	159.9137	1385.3159	-1548.241	203.661	1413.4037	-1545.0527	184.7334	1401.1545	-1652.7421	258.1452	1311.2144	-1651.2454	182.7678	1375.5947	-1743.2848	175.9491	1316.2195	-1796.1051	187.5052	1364.7399	-1804.3335	200.1167	1355.5504	-1909.4841	279.4895	1353.1234	-1902.4153	205.0848	1429.2499	-1059.1539	161.7879	1410.54	-937.3228	179.1886	1407.8677	-873.6353	132.8804	1387.7115	-883.9276	154.8005	1389.8927	-769.1448	212.7196	1295.3531	-769.2086	143.3399	1369.7529	-670.2713	158.406	1412.0066	-604.2995	142.4315	1364.2141	-607.999	153.9631	1375.7549	-515.7775	232.045	1352.5757	-503.0493	105.5152	1266.8159	-1213.6161	245.7181	474.8122	-1322.8026	221.0145	480.0563	-1086.6943	155.3255	79.8352	-1078.0054	160.9922	75.0485	-1338.9749	269.153	850.5868	-1122.1438	274.2044	857.3335	-1299.851
328	1.635	960.7542	36.2427	-1933.5176	1063.1488	32.9255	86.6483	372.4003	1600.6562	-1182.5621	321.8635	1627.7644	-1120.2322	333.2257	1628.7617	-1256.12	145.3984	1439.0607	-1203.1243	nan	nan	nan	102.7869	1230.2128	-1235.7428	96.991	1221.0089	-1186.332	110.0321	1165.7325	-1220.9636	125.4632	1102.3273	-1217.9941	97.2203	1081.2346	-1232.3113	97.0392	1078.0072	-1182.1331	90.1	1018.5643	-1212.2979	105.7351	959.8124	-1237.0599	106.6385	957.6614	-1185.6912	87.3797	900.5086	-1213.1257	335.7133	934.5421	-1330.2552	328.6776	925.1769	-1082.5333	118.575	977.1406	-1255.895	119.3225	968.0867	-1171.4221	193.185	683.7939	-1399.0339	143.2475	630.8366	-1366.5596	189.379	623.9685	-1385.5508	236.5621	487.6934	-1382.4701	254.8501	461.9241	-1263.1406	193.631	426.0207	-1387.2361	159.5629	329.0403	-1403.0308	110.4914	267.4589	-1389.9363	159.2243	267.2154	-1401.5292	142.7997	81.4744	-1381.448	183.67	89.7077	-1295.6558	95.0513	67.5692	-1318.262	309.9062	47.7154	-1348.6824	253.0428	31.1647	-1443.6278	162.555	696.5186	-1023.7302	212.8194	637.5112	-1004.3593	169.4297	635.2318	-1029.0446	202.2058	496.0634	-1025.861	239.7929	464.0325	-1147.5415	155.0441	432.6171	-1028.9569	120.3597	346.9555	-1018.7971	149.7096	275.615	-1003.4307	108.3883	286.5867	-1028.8615	125.0126	85.1033	-1041.8453	189.1037	95.5979	-1114.6509	90.5743	63.8185	-1115.0819	292.7146	47.6034	-1043.7448	216.4382	39.444	-964.1672	325.9528	1364.0997	-1199.2666	357.617	1218.6749	-1201.5679	204.6302	1435.4893	-1349.4281	171.1522	1410.3486	-1487.9501	159.9763	1385.3943	-1548.3099	203.6875	1413.3865	-1545.0665	184.7631	1401.1393	-1652.7655	258.1666	1311.1901	-1651.2894	182.73	1375.5842	-1743.3185	175.929	1316.2222	-1796.1304	187.5132	1364.7281	-1804.3273	200.0534	1355.5309	-1909.5127	279.4709	1353.1017	-1902.4818	205.0962	1429.2493	-1059.2141	161.7977	1410.5634	-937.3342	179.0891	1408.0333	-873.6811	132.8766	1387.7488	-883.9889	154.7857	1389.912	-769.1795	212.7256	1295.4452	-769.1654	143.315	1369.7843	-670.3033	158.3557	1412.019	-604.2794	142.3992	1364.2333	-608.0325	153.942	1375.7739	-515.8112	232.0178	1352.5818	-503.0759	105.5243	1266.8212	-1213.655	245.7061	474.8087	-1322.8054	220.9994	480.0479	-1086.7012	155.331	79.8245	-1078.0198	160.9995	75.0416	-1338.9787	269.157	850.6015	-1122.1281	274.2042	857.3198	-1299.836
329	1.64	960.7483	36.2412	-1933.516	1063.1476	32.922	86.6425	372.4084	1600.6683	-1182.6046	321.862	1627.7775	-1120.3215	333.2183	1628.7339	-1256.1538	145.4011	1439.0615	-1203.1764	nan	nan	nan	103.0341	1230.1428	-1235.7703	97.0072	1221.0309	-1186.3551	110.0282	1165.7354	-1221.0065	125.4553	1102.3312	-1218.0222	97.2256	1081.2594	-1232.3267	97.0243	1078.0266	-1182.158	90.041	1018.5699	-1212.3545	105.729	959.8188	-1237.0739	106.6204	957.6893	-1185.6892	87.3779	900.5222	-1213.123	335.7134	934.5373	-1330.2548	328.644	925.1544	-1082.5419	118.5779	977.1362	-1255.9169	119.3221	968.0997	-1171.4319	193.1724	683.8062	-1399.0221	143.2488	630.8332	-1366.5736	189.3985	623.9489	-1385.5493	236.553	487.6868	-1382.4723	254.8358	461.9237	-1263.1249	193.6348	426.0139	-1387.24	159.5703	329.035	-1403.0348	110.3074	267.5397	-1390.0803	159.22	267.2252	-1401.5356	142.7951	81.4667	-1381.4469	183.6629	89.6989	-1295.6615	95.0413	67.5761	-1318.2625	309.8994	47.7203	-1348.6954	252.9946	31.2381	-1443.6608	162.5556	696.5136	-1023.7191	212.8008	637.5051	-1004.3577	169.4169	635.2405	-1029.0493	202.1945	496.0669	-1025.8455	239.784	464.0298	-1147.5433	155.0276	432.617	-1028.9542	120.3563	346.9599	-1018.7978	149.7016	275.6258	-1003.4272	108.3755	286.5909	-1028.8501	125.0079	85.106	-1041.842	189.1012	95.5929	-1114.6464	90.6534	63.726	-1115.08	292.7109	47.6001	-1043.7529	216.4326	39.4142	-964.1897	325.9495	1364.0813	-1199.3008	357.6305	1218.5944	-1201.5977	204.6618	1435.4996	-1349.4497	171.1525	1410.3486	-1487.9878	159.943	1385.2555	-1548.3243	203.7525	1413.407	-1545.1073	184.7498	1401.1235	-1652.7905	258.1532	1311.1705	-1651.3304	182.6515	1375.5774	-1743.3806	175.9554	1316.1973	-1796.1243	187.4776	1364.7028	-1804.3671	199.9993	1355.5101	-1909.5585	279.4173	1353.0981	-1902.5225	205.0856	1429.2496	-1059.2411	161.7852	1410.5811	-937.3965	179.1458	1407.9369	-873.7697	132.8507	1387.76	-884.0183	154.7775	1389.9412	-769.225	212.698	1295.4486	-769.2006	143.2928	1369.8019	-670.3538	158.3211	1412.0392	-604.3375	142.3849	1364.2755	-608.0571	153.7408	1375.967	-515.7819	231.9877	1352.6028	-503.1212	105.181	1266.9694	-1213.7395	245.6944	474.8052	-1322.7986	220.9893	480.0483	-1086.6944	155.3276	79.8233	-1078.016	160.9938	75.0333	-1338.9812	269.1215	850.5876	-1122.1465	274.193	857.3188	-1299.853
